<?xml version="1.0" encoding="utf-8"?>
<!-- Generator: Adobe Illustrator 19.2.1, SVG Export Plug-In . SVG Version: 6.00 Build 0)  -->
<svg version="1.1" id="Слой_1" xmlns="http://www.w3.org/2000/svg" xmlns:xlink="http://www.w3.org/1999/xlink" x="0px" y="0px"
	 viewBox="0 0 595.3 841.9" style="enable-background:new 0 0 595.3 841.9;" xml:space="preserve">
<style type="text/css">
	.st0{fill:#484848;}
	.st1{fill:#FDFDFD;}
	.st2{fill:#FAFAFA;}
</style>
<g>
	<path class="st0" d="M1,324.9c0-2.3,0-4.7,0-7c2.4-0.9,4.8-2.4,7.3-2.7c2.4-0.2,4.9,0.8,7.3,1.5c22.8,6.8,43.3,18.2,62.4,32.2
		c20.1,14.7,38,31.3,47,55.5c0.4,0.9,1.8,2,2.8,2.1c6.1,0.6,12.3,1.2,18.4,1.2c5.4,0,8.8-3.8,8.5-8.9c-1.5-25.1-5.3-49.8-11.8-74.1
		c-1.5-5.7-0.3-9,4.1-10.6c5-1.9,9.6,0,11.5,5.5c4.7,13.6,9.8,27.1,13.3,41c3.2,13,4.6,26.4,6.5,39.7c1,7.1,2.8,9.3,9.8,10.1
		c3.6,0.4,7.3,0.6,11,0.6c6.2,0,9.5-3,9.1-9.1c-1-13.6-1.5-27.3-3.7-40.7c-2.9-18.1-7.2-36-11-54c-1.2-5.8,1.8-9.8,7.6-10.2
		c5.3-0.4,9.2,1.5,10.8,6.7c5.8,17.9,12.3,35.6,16.8,53.8c3.6,14.6,4.6,29.8,6.5,44.8c0.9,7.1,3.1,9.7,10.3,10.1c4,0.2,8,0.4,12,0.2
		c5.9-0.3,9-3.9,8.7-9.8c-0.2-4.8-0.6-9.6-0.9-14.4c-1.9-32.9-7-65.3-16-97c-2.2-7.8-1.7-9.1,4.8-13.4c3,0,6,0,9,0
		c2.5,3.1,5.7,5.9,7.2,9.4c15.6,36.8,24.3,75.3,26.6,115.2c0.4,7.1,3.5,10.2,10.6,10.2c1.8,0,3.7,0,5.5-0.1
		c10-0.3,12.3-3.2,11.7-13.4c-1.9-31.4-6.3-62.4-14.8-92.8c-0.6-2,0.2-5.1,1.6-6.7c4.1-4.9,13.3-3.6,16.1,2.2
		c1.9,3.9,3.4,7.9,5,11.9c10.8,28.6,17.1,58.2,19.3,88.7c0.4,5.7,3.2,8.4,8.9,8.5c3.7,0,7.3-0.1,11-0.3c7-0.5,9.7-3.7,9.3-10.7
		c-1.5-25.9-5.3-51.5-12.3-76.6c-1.3-4.6,0.5-7.5,4.4-9.3c4.9-2.3,9.3,0,11.8,5.8c11.1,25.6,17.1,52.6,19.8,80.3
		c0.5,4.8,3.2,7.7,7.5,7.7c8.2,0,16.5-0.8,25-1.3c-0.3-4.4-0.5-8.3-0.8-12.1c-1.8-21.1-7.1-41.5-12.6-61.8
		c-4-14.7-0.4-18.5,14.7-16.4c18.9,2.6,36.8,8.3,54,16.3c44.5,21,79.8,52.3,104.4,95.3c0,1,0,2,0,3c-3.5,1.7-6.8,3.9-10.5,5.1
		c-6.2,1.9-12.6,2.9-18.8,4.6c-1.5,0.4-2.6,2-4,3.1c1.2,1.2,2.1,2.9,3.6,3.6c3.7,1.8,7.7,2.9,11.4,4.7c5.4,2.7,6.4,6.2,2.5,10.7
		c-3.4,4-7.3,7.8-11.4,11.1c-20,15.4-42.4,26.4-65.7,35.8c-21.2,8.6-42.9,15.6-65.7,18.8c-12.8,1.8-15-0.4-12.5-12.5
		c3.4-16.7,6.8-33.4,9.6-50.3c1.5-8.9,1.6-18,2.4-27.4c-8.7-0.5-16.7-1.2-24.6-1.5c-5.1-0.1-7.6,2.8-8.4,7.9
		c-2.6,15.2-4.6,30.5-8.2,45.5c-2.8,11.8-7.6,23.2-11.7,34.7c-2.1,5.8-6.3,7.6-11.3,5.9c-4.5-1.6-6-5.1-4.4-10.9
		c6.8-24.8,10.5-50,11.9-75.6c0.3-6.1-2.4-9.5-8.4-10.1c-4.3-0.4-8.7-0.6-13-0.4c-4.6,0.2-7.3,2.9-7.8,7.5c-0.4,3.5-0.6,7-0.9,10.4
		c-3.1,30.9-10.4,60.7-22.6,89.3c-2.7,6.2-7.9,8.5-13.7,6.3c-5-1.9-6-5.2-4-12.4c8.4-30.2,12.5-61.1,14.1-92.4
		c0.3-6.5-2.4-9.6-8.8-10.2c-3.3-0.3-6.7-0.4-10-0.2c-5.7,0.3-8.5,3.4-9.1,9.2c-0.9,9.9-1.7,19.9-3,29.8
		c-3.9,29.9-11.8,58.8-23.7,86.5c-1.5,3.5-4.8,6.3-7.2,9.3c-3,0-6,0-9,0c-6.6-4.3-7-5.7-4.8-13.4c10.4-36.3,15.2-73.4,16.9-111
		c0.3-6.8-2.9-10.2-9.8-10.4c-3.2-0.1-6.3,0-9.5,0.2c-9.1,0.4-11.1,2.5-11.7,11.7c-2.3,33.2-9.9,65.1-22.7,95.8
		c-3,7.2-7.7,9.7-13.9,7.6c-5.3-1.8-6.3-5.5-4.1-13.7c8.2-29.6,12.4-59.8,13.7-90.4c0.3-6.5-2.8-9.5-9.2-9.5c-3.5,0-7,0.2-10.5,0.6
		c-7.5,0.8-9.3,2.9-10.3,10.2c-1.6,11.8-2.6,23.9-5.5,35.4c-4,15.6-9.5,30.9-14.7,46.2c-1.6,4.8-6.4,6.4-11.1,4.6
		c-4.1-1.5-5.8-5-4.4-9.7c6.8-24.2,10.5-49,12.1-74.1c0.4-6.2-2.7-10-8.9-9.9c-5.8,0.1-11.6,0.5-17.4,1.2c-1.3,0.2-2.8,1.8-3.5,3.1
		c-3.3,5.9-5.9,12.3-9.6,17.9c-15.3,22.5-36.8,38.1-60,51.5c-14.1,8.1-28.7,15.2-44.7,18.7c-3.5,0.8-6.8,1.1-9.2-2.5
		c0-2.3,0-4.7,0-7c1.9-5.5,3.5-11.2,5.7-16.6c8.6-21.4,17-42.9,26.1-64.2c4.9-11.6,4.8-22.4-0.2-33.9c-8.4-19.4-16.2-39-24-58.6
		C5.7,339.5,3.5,332.1,1,324.9z M498.6,389.5c1.5-1,3-2.1,4.6-2.9c7.4-3.9,16.5-1.3,20.5,6c-4.1,1-6.2,3.9-6.5,7.8
		c-0.2,4.6,2.6,7.3,6.8,9c-8.8,10.6-18,9-28.5,0c5.7,11.6,15.2,16.5,26.2,14.7c10-1.6,18.3-10.2,19.4-20
		c1.2-10.9-4.5-21.2-13.9-25.2c-11.1-4.8-25.5,0-29.4,9.9c-0.3,0.6-0.7,1.1-1,1.7c0.2,0.1,0.4,0.3,0.6,0.4
		C497.8,390.4,498.2,389.9,498.6,389.5z"/>
	<path class="st1" d="M597,427.9c-24.6-42.9-59.9-74.3-104.4-95.3c-17.1-8.1-35.1-13.8-54-16.3c-15.1-2-18.7,1.7-14.7,16.4
		c5.5,20.3,10.9,40.7,12.6,61.8c0.3,3.8,0.5,7.6,0.8,12.1c-8.6,0.5-16.8,1.4-25,1.3c-4.4,0-7-2.9-7.5-7.7
		c-2.8-27.7-8.7-54.6-19.8-80.3c-2.5-5.8-6.9-8-11.8-5.8c-3.8,1.8-5.7,4.6-4.4,9.3c7,25,10.8,50.6,12.3,76.6
		c0.4,7-2.4,10.2-9.3,10.7c-3.6,0.3-7.3,0.4-11,0.3c-5.7-0.1-8.5-2.8-8.9-8.5c-2.2-30.5-8.5-60.1-19.3-88.7c-1.5-4-3.1-8-5-11.9
		c-2.8-5.8-12-7.1-16.1-2.2c-1.3,1.6-2.1,4.7-1.6,6.7c8.4,30.4,12.9,61.4,14.8,92.8c0.6,10.1-1.7,13-11.7,13.4
		c-1.8,0.1-3.7,0.1-5.5,0.1c-7.2-0.1-10.2-3.1-10.6-10.2c-2.3-39.9-11-78.4-26.6-115.2c-1.5-3.5-4.8-6.3-7.2-9.4
		c111.2,0,222.4,0,334,0C597,327.9,597,377.9,597,427.9z"/>
	<path class="st1" d="M263,566.9c2.5-3.1,5.7-5.8,7.2-9.3c11.9-27.7,19.7-56.6,23.7-86.5c1.3-9.9,2.1-19.8,3-29.8
		c0.5-5.8,3.3-8.9,9.1-9.2c3.3-0.2,6.7-0.1,10,0.2c6.5,0.6,9.2,3.7,8.8,10.2c-1.7,31.3-5.7,62.2-14.1,92.4c-2,7.2-1,10.4,4,12.4
		c5.8,2.2,11-0.1,13.7-6.3c12.3-28.5,19.5-58.4,22.6-89.3c0.4-3.5,0.5-7,0.9-10.4c0.5-4.6,3.2-7.3,7.8-7.5c4.3-0.2,8.7,0,13,0.4
		c6.1,0.6,8.8,4,8.4,10.1c-1.5,25.6-5.1,50.9-11.9,75.6c-1.6,5.8-0.2,9.3,4.4,10.9c5.1,1.8,9.2-0.1,11.3-5.9
		c4.2-11.5,8.9-22.9,11.7-34.7c3.6-15,5.6-30.3,8.2-45.5c0.9-5.1,3.4-8,8.4-7.9c8,0.2,15.9,0.9,24.6,1.5c-0.8,9.4-0.9,18.5-2.4,27.4
		c-2.8,16.8-6.2,33.6-9.6,50.3c-2.5,12.1-0.2,14.3,12.5,12.5c22.8-3.2,44.5-10.2,65.7-18.8c23.2-9.4,45.7-20.4,65.7-35.8
		c4.2-3.2,8.1-7,11.4-11.1c3.8-4.6,2.9-8-2.5-10.7c-3.7-1.8-7.7-2.9-11.4-4.7c-1.4-0.7-2.4-2.4-3.6-3.6c1.3-1.1,2.5-2.7,4-3.1
		c6.2-1.7,12.6-2.8,18.8-4.6c3.7-1.1,7-3.3,10.5-5.1c0,45.3,0,90.7,0,136C485.7,566.9,374.3,566.9,263,566.9z"/>
	<path class="st1" d="M1,526.9c2.3,3.5,5.7,3.2,9.2,2.5c16.1-3.5,30.7-10.5,44.7-18.7c23.2-13.4,44.7-28.9,60-51.5
		c3.8-5.6,6.3-12,9.6-17.9c0.7-1.3,2.2-2.9,3.5-3.1c5.8-0.7,11.6-1.1,17.4-1.2c6.2-0.1,9.3,3.7,8.9,9.9
		c-1.6,25.1-5.2,49.8-12.1,74.1c-1.3,4.7,0.3,8.2,4.4,9.7c4.6,1.8,9.5,0.2,11.1-4.6c5.2-15.3,10.7-30.6,14.7-46.2
		c3-11.5,3.9-23.5,5.5-35.4c1-7.3,2.7-9.4,10.3-10.2c3.5-0.4,7-0.6,10.5-0.6c6.5,0,9.5,3,9.2,9.5c-1.3,30.6-5.5,60.8-13.7,90.4
		c-2.3,8.2-1.2,11.9,4.1,13.7c6.2,2.1,10.9-0.4,13.9-7.6c12.8-30.7,20.3-62.6,22.7-95.8c0.7-9.3,2.6-11.4,11.7-11.7
		c3.2-0.1,6.3-0.2,9.5-0.2c6.8,0.2,10.1,3.6,9.8,10.4c-1.7,37.6-6.5,74.7-16.9,111c-2.2,7.8-1.8,9.1,4.8,13.4c-84.3,0-168.7,0-253,0
		C1,553.5,1,540.2,1,526.9z"/>
	<path class="st1" d="M254,277.9c-6.5,4.3-7,5.7-4.8,13.4c9,31.7,14.1,64.1,16,97c0.3,4.8,0.7,9.6,0.9,14.4c0.3,5.9-2.8,9.5-8.7,9.8
		c-4,0.2-8,0-12-0.2c-7.2-0.4-9.4-3-10.3-10.1c-1.9-15-2.9-30.2-6.5-44.8c-4.4-18.2-11-35.9-16.8-53.8c-1.7-5.2-5.6-7.1-10.8-6.7
		c-5.9,0.4-8.9,4.5-7.6,10.2c3.8,18,8.1,35.9,11,54c2.2,13.4,2.7,27.1,3.7,40.7c0.4,6-2.9,9.1-9.1,9.1c-3.7,0-7.3-0.2-11-0.6
		c-7-0.8-8.8-3-9.8-10.1c-1.9-13.3-3.3-26.7-6.5-39.7c-3.4-13.9-8.6-27.4-13.3-41c-1.9-5.5-6.6-7.4-11.5-5.5
		c-4.4,1.7-5.6,4.9-4.1,10.6c6.6,24.3,10.3,49,11.8,74.1c0.3,5.2-3.1,9-8.5,8.9c-6.1,0-12.3-0.6-18.4-1.2c-1-0.1-2.4-1.2-2.8-2.1
		c-9-24.1-26.9-40.8-47-55.5c-19.1-14-39.6-25.4-62.4-32.2c-2.4-0.7-4.9-1.7-7.3-1.5c-2.5,0.2-4.8,1.7-7.3,2.7c0-13.3,0-26.6,0-40
		C85.3,277.9,169.7,277.9,254,277.9z"/>
	<path class="st1" d="M1,324.9c2.5,7.2,4.7,14.6,7.6,21.7c7.8,19.6,15.6,39.3,24,58.6c5,11.5,5.1,22.3,0.2,33.9
		c-9.1,21.2-17.5,42.7-26.1,64.2c-2.2,5.4-3.8,11-5.7,16.6C1,454.9,1,389.9,1,324.9z"/>
	<path class="st2" d="M497.8,388.7c3.9-9.9,18.2-14.7,29.4-9.9c9.5,4.1,15.1,14.4,13.9,25.2c-1.1,9.8-9.4,18.3-19.4,20
		c-11,1.8-20.5-3-26.2-14.7c10.5,9,19.8,10.6,28.5,0c-4.3-1.7-7.1-4.4-6.8-9c0.2-4,2.3-6.9,6.5-7.8c-4-7.3-13-10-20.5-6
		c-1.6,0.9-3.1,2-4.6,2.9C498.3,389.2,498.1,389,497.8,388.7z"/>
	<path class="st2" d="M498.6,389.5c-0.4,0.5-0.8,0.9-1.2,1.4c-0.2-0.1-0.4-0.3-0.6-0.4c0.3-0.6,0.7-1.1,1-1.7
		C498.1,389,498.3,389.2,498.6,389.5z"/>
</g>
</svg>
